<svg width="16" height="62" viewBox="0 0 16 62" fill="none" xmlns="http://www.w3.org/2000/svg">
<path d="M9 1C9 0.447715 8.55228 2.41411e-08 8 0C7.44772 -2.41411e-08 7 0.447715 7 1L9 1ZM7.29289 61.7071C7.68341 62.0976 8.31658 62.0976 8.7071 61.7071L15.0711 55.3431C15.4616 54.9526 15.4616 54.3195 15.0711 53.9289C14.6805 53.5384 14.0474 53.5384 13.6569 53.9289L8 59.5858L2.34314 53.9289C1.95262 53.5384 1.31945 53.5384 0.92893 53.9289C0.538406 54.3195 0.538406 54.9526 0.92893 55.3431L7.29289 61.7071ZM7 1L7 61L9 61L9 1L7 1Z" fill="#4A4A4C"/>
</svg>
